<?xml version="1.0" encoding="utf-8"?>
<!-- Generator: Adobe Illustrator 16.0.0, SVG Export Plug-In . SVG Version: 6.00 Build 0)  -->
<!DOCTYPE svg PUBLIC "-//W3C//DTD SVG 1.1//EN" "http://www.w3.org/Graphics/SVG/1.1/DTD/svg11.dtd">
<svg version="1.1" id="图层_1" xmlns="http://www.w3.org/2000/svg" xmlns:xlink="http://www.w3.org/1999/xlink" x="0px" y="0px"
	 width="1000px" height="2000px" viewBox="0 0 1000 2000" enable-background="new 0 0 1000 2000" xml:space="preserve">
<path fill="#22AC38" d="M18.907,44.069c-0.262,0-0.521-0.099-0.721-0.301L3.483,29.072c-0.396-0.404-0.396-1.053,0-1.452
	c0.404-0.401,1.055-0.401,1.454,0l13.97,13.972L51.009,9.493c0.4-0.401,1.05-0.401,1.449,0c0.403,0.401,0.403,1.052,0,1.453
	L19.636,43.768C19.434,43.97,19.171,44.069,18.907,44.069L18.907,44.069z"/>
<path fill="none" stroke="#FFFFFF" stroke-miterlimit="10" d="M18.907,102.774c-0.262,0-0.521-0.099-0.721-0.301L3.483,87.777
	c-0.396-0.404-0.396-1.053,0-1.452c0.404-0.401,1.055-0.401,1.454,0l13.97,13.972l32.102-32.099c0.4-0.401,1.05-0.401,1.449,0
	c0.403,0.401,0.403,1.052,0,1.453l-32.822,32.822C19.434,102.675,19.171,102.774,18.907,102.774L18.907,102.774z"/>
</svg>
