<?xml version="1.0" encoding="utf-8"?>
<!-- Generator: Adobe Illustrator 16.0.0, SVG Export Plug-In . SVG Version: 6.00 Build 0)  -->
<!DOCTYPE svg PUBLIC "-//W3C//DTD SVG 1.1//EN" "http://www.w3.org/Graphics/SVG/1.1/DTD/svg11.dtd">
<svg version="1.1" id="图层_1" xmlns="http://www.w3.org/2000/svg" xmlns:xlink="http://www.w3.org/1999/xlink" x="0px" y="0px"
	 width="1000px" height="2000px" viewBox="0 0 1000 2000" enable-background="new 0 0 1000 2000" xml:space="preserve">
<g>
	<g>
		<path fill="#A8ABB1" d="M45.25,22h-27v-4.5h2.25v2.25c0,0.414,0.336,0.75,0.75,0.75S22,20.164,22,19.75V17.5h3.75v2.25
			c0,0.414,0.336,0.75,0.75,0.75s0.75-0.336,0.75-0.75V17.5H31v2.25c0,0.414,0.336,0.75,0.75,0.75s0.75-0.336,0.75-0.75V17.5h3.75
			v2.25c0,0.414,0.336,0.75,0.75,0.75s0.75-0.336,0.75-0.75V17.5h3.75v2.25c0,0.414,0.336,0.75,0.75,0.75S43,20.164,43,19.75V17.5
			h2.25V22L45.25,22z M45.25,38.5c0,1.654-1.346,3-3,3h-21c-1.654,0-3-1.346-3-3v-15h27V38.5L45.25,38.5z M46,16h-3v-2.25
			c0-0.414-0.336-0.75-0.75-0.75s-0.75,0.336-0.75,0.75V16h-3.75v-2.25c0-0.414-0.336-0.75-0.75-0.75s-0.75,0.336-0.75,0.75V16H32.5
			v-2.25c0-0.414-0.336-0.75-0.75-0.75S31,13.336,31,13.75V16h-3.75v-2.25c0-0.414-0.336-0.75-0.75-0.75s-0.75,0.336-0.75,0.75V16
			H22v-2.25c0-0.414-0.336-0.75-0.75-0.75s-0.75,0.336-0.75,0.75V16h-3c-0.414,0-0.75,0.336-0.75,0.75V38.5
			c0,2.485,2.015,4.5,4.5,4.5h21c2.485,0,4.5-2.015,4.5-4.5V16.75C46.75,16.336,46.414,16,46,16L46,16z"/>
		<path fill="#A8ABB1" d="M23.5,28c0.414,0,0.75,0.336,0.75,0.75s-0.336,0.75-0.75,0.75s-0.75-0.336-0.75-0.75S23.086,28,23.5,28
			L23.5,28z M23.5,31c1.243,0,2.25-1.007,2.25-2.25s-1.007-2.25-2.25-2.25s-2.25,1.007-2.25,2.25S22.257,31,23.5,31L23.5,31z"/>
		<path fill="#A8ABB1" d="M31.75,28c0.414,0,0.75,0.336,0.75,0.75s-0.336,0.75-0.75,0.75S31,29.164,31,28.75S31.336,28,31.75,28
			L31.75,28z M31.75,31c1.243,0,2.25-1.007,2.25-2.25s-1.007-2.25-2.25-2.25s-2.25,1.007-2.25,2.25S30.507,31,31.75,31L31.75,31z"/>
		<path fill="#A8ABB1" d="M40,28c0.414,0,0.75,0.336,0.75,0.75S40.414,29.5,40,29.5s-0.75-0.336-0.75-0.75S39.586,28,40,28L40,28z
			 M40,31c1.243,0,2.25-1.007,2.25-2.25S41.243,26.5,40,26.5s-2.25,1.007-2.25,2.25S38.757,31,40,31L40,31z"/>
		<path fill="#A8ABB1" d="M23.5,35.5c0.414,0,0.75,0.336,0.75,0.75S23.914,37,23.5,37s-0.75-0.336-0.75-0.75S23.086,35.5,23.5,35.5
			L23.5,35.5z M23.5,38.5c1.243,0,2.25-1.007,2.25-2.25S24.743,34,23.5,34s-2.25,1.007-2.25,2.25S22.257,38.5,23.5,38.5L23.5,38.5z"
			/>
		<path fill="#A8ABB1" d="M31.75,35.5c0.414,0,0.75,0.336,0.75,0.75S32.164,37,31.75,37S31,36.664,31,36.25S31.336,35.5,31.75,35.5
			L31.75,35.5z M31.75,38.5c1.243,0,2.25-1.007,2.25-2.25S32.993,34,31.75,34s-2.25,1.007-2.25,2.25S30.507,38.5,31.75,38.5
			L31.75,38.5z"/>
		<path fill="#A8ABB1" d="M40,35.5c0.414,0,0.75,0.336,0.75,0.75S40.414,37,40,37s-0.75-0.336-0.75-0.75S39.586,35.5,40,35.5
			L40,35.5z M40,38.5c1.243,0,2.25-1.007,2.25-2.25S41.243,34,40,34s-2.25,1.007-2.25,2.25S38.757,38.5,40,38.5L40,38.5z"/>
	</g>
</g>
</svg>
