<?xml version="1.0" encoding="utf-8"?>
<!-- Generator: Adobe Illustrator 16.0.0, SVG Export Plug-In . SVG Version: 6.00 Build 0)  -->
<!DOCTYPE svg PUBLIC "-//W3C//DTD SVG 1.1//EN" "http://www.w3.org/Graphics/SVG/1.1/DTD/svg11.dtd">
<svg version="1.1" id="图层_1" xmlns="http://www.w3.org/2000/svg" xmlns:xlink="http://www.w3.org/1999/xlink" x="0px" y="0px"
	 width="1000px" height="2000px" viewBox="0 0 1000 2000" enable-background="new 0 0 1000 2000" xml:space="preserve">
<g>
	<g>
		<path fill="none" stroke="#FFFFFF" stroke-miterlimit="10" d="M29.831,11.922c0.441-1.007-0.098-1.832-1.198-1.832H18.55
			c-1.1,0-1.681,0.842-1.292,1.871l3.916,10.343c0.39,1.028,0.39,2.712,0,3.74l-3.916,10.343c-0.39,1.029,0.191,1.871,1.292,1.871
			h10.083c1.1,0,1.639-0.825,1.198-1.832l-4.562-10.419c-0.441-1.008-0.441-2.656,0-3.664L29.831,11.922z"/>
	</g>
	<g>
		<path fill="#FFFFFF" d="M23.292,15.089c-1.949,0-1.949,0-1.949,0c-1.069,0.001-1.493,0.781-0.943,1.733l2.035,3.201
			c0.471,0.994,1.242,0.994,1.713,0l2.035-3.201c0.55-0.953,0.126-1.732-0.943-1.733C25.241,15.09,25.241,15.09,23.292,15.089z"/>
	</g>
	<g>
		<path fill="#FFFFFF" d="M23.513,37.038c2.599,0,3.19-0.001,3.19-0.001c1.1-0.001,1.55-0.781,1-1.733l-3.334-5.451
			c-0.471-0.994-1.242-0.994-1.713,0l-3.334,5.451c-0.55,0.953-0.1,1.732,1,1.733C20.323,37.037,20.914,37.038,23.513,37.038z"/>
	</g>
</g>
</svg>
