<?xml version="1.0" encoding="utf-8"?>
<!-- Generator: Adobe Illustrator 16.0.0, SVG Export Plug-In . SVG Version: 6.00 Build 0)  -->
<!DOCTYPE svg PUBLIC "-//W3C//DTD SVG 1.1//EN" "http://www.w3.org/Graphics/SVG/1.1/DTD/svg11.dtd">
<svg version="1.1" id="图层_1" xmlns="http://www.w3.org/2000/svg" xmlns:xlink="http://www.w3.org/1999/xlink" x="0px" y="0px"
	 width="1000px" height="2000px" viewBox="0 0 1000 2000" enable-background="new 0 0 1000 2000" xml:space="preserve">
<g>
	<g>
		<path fill="#A8ABB1" d="M50.082,45.917l-2.121-2.121l10.607-10.606l2.121,2.121L50.082,45.917L50.082,45.917z M45.84,48.038
			l1.06-3.182l2.122,2.122L45.84,48.038L45.84,48.038z M61.75,34.25l-2.121-2.122c-0.586-0.585-1.535-0.585-2.121,0L45.84,43.796
			c-0.165,0.164-0.289,0.365-0.363,0.586l-1.06,3.183c-0.052,0.155-0.07,0.315-0.07,0.475h-7.658v1.5h9c0,0,0.42-0.009,0.625-0.078
			l3.182-1.06c0.221-0.074,0.422-0.198,0.586-0.363L61.75,36.371C62.336,35.785,62.336,34.835,61.75,34.25L61.75,34.25z"/>
		<path fill="#A8ABB1" d="M38.189,28.689h3v-3h6v3h3v1.5h-12V28.689L38.189,28.689z M54.689,52.689h-21v-22.5h3
			c0,0.828,0.672,1.5,1.5,1.5h12c0.828,0,1.5-0.672,1.5-1.5h3v2.637l1.5-1.5v-1.137c0-0.828-0.672-1.5-1.5-1.5h-3
			c0-0.828-0.672-1.5-1.5-1.5h-1.5v-1.5c0-0.828-0.672-1.5-1.5-1.5h-6c-0.828,0-1.5,0.672-1.5,1.5v1.5h-1.5
			c-0.828,0-1.5,0.672-1.5,1.5h-3c-0.828,0-1.5,0.672-1.5,1.5v22.5c0,0.828,0.672,1.5,1.5,1.5h21c0.828,0,1.5-0.672,1.5-1.5v-8.637
			l-1.5,1.499V52.689L54.689,52.689z"/>
	</g>
</g>
</svg>
